# AST/ASF file generated using VICON BodyLanguage
# -----------------------------------------------
:version 1.10
:name VICON
:units
  mass 1.0
  length 0.45
  angle deg
:documentation
   .ast/.asf automatically generated from VICON data using
   VICON BodyBuilder and BodyLanguage model FoxedUp or BRILLIANT.MOD
:root
   order TX TY TZ RX RY RZ
   axis XYZ
   position 0 0 0  
   orientation 0 0 0 
:bonedata
  begin
     id 1 
     name lhipjoint
     direction 0.611804 -0.747784 0.257906 
     length 2.29243 
     axis 0 0 0  XYZ
  end
  begin
     id 2 
     name lfemur
     direction 0.34202 -0.939693 0  
     length 7.31159  
     axis 0 0 20  XYZ
    dof rx ry rz
    limits (-160.0 20.0)
           (-70.0 70.0)
           (-60.0 70.0)
  end
  begin
     id 3 
     name ltibia
     direction 0.34202 -0.939693 0   
     length 7.33391   
     axis 0 0 20   XYZ
    dof rx
    limits (-10.0 170.0)
  end
  begin
     id 4 
     name lfoot
     direction 0.122263 -0.335914 0.933924   
     length 1.76083   
     axis -90 7.62852e-016 20   XYZ
    dof rx rz
    limits (-45.0 90.0)
           (-70.0 20.0)
  end
  begin
     id 5 
     name ltoes
     direction 1.53533e-011 -4.2177e-011 1   
     length 0.879206   
     axis -90 7.62852e-016 20   XYZ
    dof rx
    limits (-90.0 20.0)
  end
  begin
     id 6 
     name rhipjoint
     direction -0.646469 -0.721248 0.248754   
     length 2.37677  
     axis 0 0 0  XYZ 
  end
  begin
     id 7 
     name rfemur
     direction -0.34202 -0.939693 0   
     length 7.18623   
     axis 0 0 -20   XYZ
    dof rx ry rz
    limits (-160.0 20.0)
           (-70.0 70.0)
           (-70.0 60.0)
  end
  begin
     id 8 
     name rtibia
     direction -0.34202 -0.939693 0   
     length 7.36567   
     axis 0 0 -20   XYZ
    dof rx
    limits (-10.0 170.0)
 end
 begin
     id 9 
     name rfoot
     direction -0.126681 -0.348054 0.928876   
     length 1.71902  
     axis -90 -7.62852e-016 -20   XYZ
    dof rx rz
    limits (-45.0 90.0)
           (-20.0 70.0)
  end
  begin
     id 10 
     name rtoes
     direction -1.53551e-011 -4.21898e-011 1   
     length 0.857792   
     axis -90 -7.62852e-016 -20   XYZ
    dof rx
    limits (-90.0 20.0)
  end
  begin
     id 11 
     name lowerback
     direction 0.0106509 0.999778 0.0181844   
     length 2.07668   
     axis 0 0 0   XYZ
    dof rx ry rz
    limits (-20.0 45.0)
           (-30.0 30.0)
           (-30.0 30.0)
  end
  begin
     id 12 
     name upperback
     direction -0.00456018 0.999989 -0.000590935   
     length 2.08011   
     axis 0 0 0   XYZ
    dof rx ry rz
    limits (-20.0 45.0)
           (-30.0 30.0)
           (-30.0 30.0)
  end
  begin
     id 13 
     name thorax
     direction -0.00910382 0.999916 -0.00923765   
     length 2.07397   
     axis 0 0 0   XYZ
    dof rx ry rz
    limits (-20.0 45.0)
           (-30.0 30.0)
           (-30.0 30.0)
  end
  begin
     id 14 
     name lowerneck
     direction 0.00171967 0.99778 0.0665733   
     length 1.67556   
     axis 0 0 0   XYZ
    dof rx ry rz
    limits (-20.0 45.0)
           (-30.0 30.0)
           (-30.0 30.0)
  end
  begin
     id 15 
     name upperneck
     direction -0.0143166 0.991302 -0.130828   
     length 1.68462   
     axis 0 0 0   XYZ
    dof rx ry rz
    limits (-20.0 45.0)
           (-30.0 30.0)
           (-30.0 30.0)
  end
  begin
     id 16
     name head
     direction -0.00606378 0.998665 -0.0512995  
     length 1.69269  
     axis 0 0 0   XYZ
    dof rx ry rz
    limits (-20.0 45.0)
           (-30.0 30.0)
           (-30.0 30.0)
  end
  begin
     id 17 
     name lclavicle
     direction 0.9638 0.179341 0.197297  
     length 4.12888  
     axis 0 0 0   XYZ
    dof ry rz
    limits (-20.0 10.0)
           (0.0 20.0)
  end
  begin
     id 18 
     name lhumerus
     direction 1 -4.48972e-011 -2.47351e-027   
     length 5.01834   
     axis -180 -30 -90   XYZ
    dof rx ry rz
    limits (-60.0 90.0)
           (-90.0 90.0)
           (-90.0 90.0)
  end
  begin
     id 19
     name lradius
     direction 1 -4.48965e-011 1.51591e-026   
     length 3.4869   
     axis -180 -30 -90   XYZ
    dof rx
    limits (-10.0 170.0)
  end
  begin
     id 20
     name lwrist
     direction 1 -4.48957e-011 2.70032e-026   
     length 1.74345   
     axis -1.81515e-014 90 90   XYZ
    dof ry
    limits (-180.0 0.0)
 end
  begin
     id 21 
     name lhand
     direction 1 -4.48951e-011 5.40064e-026   
     length 0.76799   
     axis -3.44607e-014 90 90   XYZ
    dof rx rz
    limits (-90.0 90.0)
           (-45.0 45.0)
  end
  begin
     id 22 
     name lfingers
     direction 1 -4.48971e-011 1.08013e-025   
     length 0.619174   
     axis -6.89214e-014 90 90   XYZ
    dof rx
    limits (0.0 90.0)
  end
  begin
     id 23
     name lthumb
     direction 0.707107 -6.34931e-011 0.707107   
     length 0.889013   
     axis -90 45 2.85299e-015   XYZ
    dof rx rz
    limits (-45.0 45.0)
           (-45.0 45.0)
  end
  begin
     id 24 
     name rclavicle
     direction -0.961409 0.252588 0.109054   
     length 4.04305  
     axis 0 0 0   XYZ 
    dof ry rz
    limits (-10.0 20.0)
           (-20.0 0.0)
  end
  begin
     id 25 
     name rhumerus
     direction -1 -4.4897e-011 1.33872e-017  
     length 4.70164   
     axis -180 30 90   XYZ
    dof rx ry rz
    limits (-90.0 60.0)
           (-90.0 90.0)
           (-90.0 90.0)
  end
  begin
     id 26 
     name rradius
     direction -1 -4.48954e-011 1.83844e-026   
     length 3.49911   
     axis -180 30 90   XYZ
    dof rx
    limits (-10.0 170.0)
  end
  begin
     id 27 
     name rwrist
     direction -1 -4.49008e-011 2.70032e-026   
     length 1.74955   
     axis -1.81515e-014 -90 -90   XYZ
    dof ry
    limits (-180.0 0.0)
  end
  begin
     id 28
     name rhand
     direction -1 -4.48916e-011 5.40064e-026   
     length 0.739335   
     axis -3.44607e-014 -90 -90   XYZ
    dof rx rz
    limits (-90.0 90.0)
           (-45.0 45.0)
  end
  begin
     id 29
     name rfingers
     direction -1 -4.48987e-011 1.08013e-025   
     length 0.596071   
     axis -6.89214e-014 -90 -90   XYZ
    dof rx
    limits (0.0 90.0)
  end
  begin
     id 30
     name rthumb
     direction -0.707107 -6.34935e-011 0.707107   
     length 0.855843   
     axis -90 -45 -2.85299e-015   XYZ
    dof rx rz
    limits (-45.0 45.0)
           (-45.0 45.0)
  end
:hierarchy
  begin
    root lhipjoint rhipjoint lowerback
    lhipjoint lfemur
    lfemur ltibia
    ltibia lfoot
    lfoot ltoes
    rhipjoint rfemur
    rfemur rtibia
    rtibia rfoot
    rfoot rtoes
    lowerback upperback
    upperback thorax
    thorax lowerneck lclavicle rclavicle
    lowerneck upperneck
    upperneck head
    lclavicle lhumerus
    lhumerus lradius
    lradius lwrist
    lwrist lhand lthumb
    lhand lfingers
    rclavicle rhumerus
    rhumerus rradius
    rradius rwrist
    rwrist rhand rthumb
    rhand rfingers
  end

#!OML:ASF I:\salsa\salsa 7_09\Patient 1\Session 1\dancermale.ASF
:FULLY-SPECIFIED
:DEGREES
787
root 14.0045 16.8029 1.51841 362.847 -69.6752 363.19
lowerback -4.86397 2.37496 7.09993
upperback -1.92966 2.82359 -0.829941
thorax 1.11255 1.38618 -4.67264
lowerneck -8.47784 -2.18169 -0.065986
upperneck 27.3531 -3.69301 0.113623
head 10.0809 -1.90802 -0.392534
rclavicle -7.47058e-014 -1.59028e-014
rhumerus -30.4752 3.20594 -73.3588
rradius 88.786
rwrist 47.729
rhand -20.0092 -0.129963
rfingers 7.12502
rthumb 6.33097 -30.0154
lclavicle -7.47058e-014 -1.59028e-014
lhumerus -49.4804 -23.5779 92.6769
lradius 104.516
lwrist 59.348
lhand -12.6179 38.3139
lfingers 7.12502
lthumb 13.4615 427.859
rfemur -11.378 6.74643 11.9604
rtibia 38.6597
rfoot -24.3853 -10.3964
rtoes -25.0235
lfemur -23.3516 -11.1696 3.15773
ltibia 23.9548
lfoot -8.65392 -0.855265
ltoes -30.8906
788
root 13.9047 16.8228 1.86006 361.447 -71.2451 364.767
lowerback -5.01195 2.24 7.30036
upperback -1.8872 2.61988 -0.807177
thorax 1.2192 1.28865 -4.77014
lowerneck -8.73545 -2.25087 -0.241981
upperneck 27.9725 -3.81168 0.0931684
head 10.3626 -1.99201 -0.397829
rclavicle -1.8546e-014 1.98785e-015
rhumerus -33.6281 3.07464 -73.1748
rradius 91.46
rwrist 47.5798
rhand -23.0539 -0.0655326
rfingers 7.12502
rthumb 3.39104 -30.0183
lclavicle -1.8546e-014 1.98785e-015
lhumerus -50.4169 -21.9234 90.1124
lradius 106.835
lwrist 60.5141
lhand -12.6764 39.0345
lfingers 7.12502
lthumb 13.4051 428.583
rfemur -10.9583 7.935 10.3878
rtibia 38.3014
rfoot -22.8956 -10.4988
rtoes -23.7989
lfemur -22.0411 -10.074 1.22517
ltibia 24.1829
lfoot -11.2153 0.44893
ltoes -34.2027
789
root 13.843 16.8336 2.21589 360.548 -73.274 366.533
lowerback -5.36087 2.38897 7.8936
upperback -2.09449 2.76287 -0.931821
thorax 1.24974 1.35153 -5.21588
lowerneck -9.00475 -2.33841 -0.307603
upperneck 28.5447 -3.98435 0.102975
head 10.6313 -2.08535 -0.417985
rclavicle -1.8282e-014 -1.59028e-015
rhumerus -36.9563 2.48747 -72.969
rradius 94.0773
rwrist 47.2931
rhand -26.5696 -0.0252029
rfingers 7.12502
rthumb -0.00435055 -30.0049
lclavicle -1.8282e-014 -1.59028e-015
lhumerus -50.8107 -20.5973 87.412
lradius 108.696
lwrist 61.8619
lhand -12.9134 39.5798
lfingers 7.12502
lthumb 13.1766 429.143
rfemur -12.3867 8.88366 8.42102
rtibia 39.1184
rfoot -21.4849 -9.73547
rtoes -22.4999
lfemur -21.6543 -8.24473 -0.686918
ltibia 24.6662
lfoot -13.1526 2.26746
ltoes -36.1235
790
root 13.7608 16.8511 2.53918 359.375 -74.6364 368.427
lowerback -5.77183 2.36401 7.94421
upperback -2.26453 2.69119 -0.931686
thorax 1.29346 1.30931 -5.23903
lowerneck -9.08859 -2.53887 -0.305752
upperneck 29.0521 -4.33275 0.0962656
head 10.8405 -2.2561 -0.47318
rclavicle 3.41133e-014 -2.38542e-014
rhumerus -40.5099 1.53705 -72.5973
rradius 96.6548
rwrist 46.3916
rhand -30.0657 0.449564
rfingers 7.12502
rthumb -3.38094 -29.5034
lclavicle 3.41133e-014 -2.38542e-014
lhumerus -50.8074 -19.546 84.7918
lradius 110.138
lwrist 63.1468
lhand -13.2312 40.3451
lfingers 7.12502
lthumb 12.8703 429.928
rfemur -13.5228 9.74432 6.80905
rtibia 40.0862
rfoot -19.9671 -9.22405
rtoes -19.4082
lfemur -21.1736 -6.35986 -2.54852
ltibia 24.8996
lfoot -14.8547 3.42674
ltoes -36.5093
791
root 13.6883 16.8714 2.8482 357.956 -75.7413 370.661
lowerback -6.19643 2.2083 7.78958
upperback -2.44693 2.45386 -0.846274
thorax 1.29533 1.18245 -5.07183
lowerneck -9.07119 -2.71714 -0.478058
upperneck 29.4466 -4.64006 0.186172
head 10.9958 -2.41617 -0.456236
rclavicle -3.53153e-015 -3.26007e-014
rhumerus -43.9768 0.497548 -72.1074
rradius 99.1199
rwrist 45.3614
rhand -33.8975 0.50319
rfingers 7.12502
rthumb -7.08059 -29.3584
lclavicle -3.53153e-015 -3.26007e-014
lhumerus -50.4119 -18.2958 82.2102
lradius 111.267
lwrist 64.2787
lhand -13.5456 41.2223
lfingers 7.12502
lthumb 12.5672 430.824
rfemur -15.2238 10.423 5.25279
rtibia 41.762
rfoot -17.8109 -9.07369
rtoes -13.9927
lfemur -20.8149 -4.90115 -4.28075
ltibia 24.7433
lfoot -16.15 4.09046
ltoes -36.6464
792
root 13.6235 16.8988 3.13146 356.496 -76.9149 372.958
lowerback -6.57122 1.96439 7.50942
upperback -2.54901 2.10865 -0.659721
thorax 1.33211 1.00674 -4.73922
lowerneck -9.19499 -2.80684 -0.884229
upperneck 29.7909 -4.82194 0.467123
head 11.1739 -2.51926 -0.317508
rclavicle 4.25523e-014 6.36111e-015
rhumerus -47.0082 -0.692705 -71.6466
rradius 101.316
rwrist 44.2501
rhand -38.486 -0.109615
rfingers 7.12502
rthumb -11.508 -29.7737
lclavicle 4.25523e-014 6.36111e-015
lhumerus -49.5275 -16.6072 79.5319
lradius 112.103
lwrist 65.5185
lhand -13.5192 42.0345
lfingers 7.12502
lthumb 12.5927 431.635
rfemur -17.5618 11.1539 3.91879
rtibia 44.1953
rfoot -15.0322 -9.14868
rtoes -4.93633
lfemur -20.2913 -3.83747 -5.64399
ltibia 23.9384
lfoot -16.9241 4.20629
ltoes -36.4396
793
root 13.5634 16.9295 3.38969 355.126 -77.9014 375.332
lowerback -7.17168 1.62155 7.11663
upperback -2.53376 1.61891 -0.425303
thorax 1.59911 0.771386 -4.3025
lowerneck -9.57 -2.91634 -1.33993
upperneck 30.0187 -4.99236 0.720987
head 11.3609 -2.61877 -0.181533
rclavicle 2.73826e-014 7.95139e-016
rhumerus -49.3234 -2.42612 -71.1141
rradius 103.01
rwrist 42.7323
rhand -42.8977 0.0669569
rfingers 7.12502
rthumb -15.7598 -29.3114
lclavicle 2.73826e-014 7.95139e-016
lhumerus -48.0734 -14.7091 76.8416
lradius 112.698
lwrist 66.8755
lhand -13.6234 42.9815
lfingers 7.12502
lthumb 12.4922 432.588
rfemur -20.4772 11.728 2.75916
rtibia 47.1857
rfoot -12.1493 -9.5813
rtoes 5.62033
lfemur -20.0468 -2.90373 -6.82519
ltibia 22.8702
lfoot -17.2557 4.20208
ltoes -36.5106
794
root 13.4977 16.9617 3.62809 353.429 -78.5144 378.2
lowerback -8.05684 1.19973 6.56166
upperback -2.50073 1.02081 -0.276395
thorax 2.039 0.486885 -3.87816
lowerneck -9.93967 -3.08567 -1.44664
upperneck 30.0317 -5.212 0.680536
head 11.4459 -2.73357 -0.21535
rclavicle -1.13307e-014 1.27222e-014
rhumerus -51.3565 -4.59573 -70.457
rradius 104.327
rwrist 40.8977
rhand -46.1228 0.709951
rfingers 7.12502
rthumb -18.8638 -28.3954
lclavicle -1.13307e-014 1.27222e-014
lhumerus -46.2931 -12.9101 74.1326
lradius 113.087
lwrist 67.9818
lhand -13.4952 44.1853
lfingers 7.12502
lthumb 12.6158 433.784
rfemur -23.6869 11.8809 1.70337
rtibia 50.4748
rfoot -9.88065 -10.6834
rtoes 12.5497
lfemur -20.271 -2.00845 -8.14235
ltibia 22.0318
lfoot -17.4349 4.20808
ltoes -36.7251
795
root 13.4275 16.9964 3.84171 350.684 -79.1724 381.936
lowerback -8.40774 0.741147 5.83203
upperback -2.77258 0.443323 -0.2048
thorax 1.8807 0.184043 -3.44941
lowerneck -9.7481 -3.1864 -1.43749
upperneck 30.0712 -5.39089 0.640754
head 11.4234 -2.832 -0.252395
rclavicle 3.598e-014 3.97569e-015
rhumerus -53.9514 -6.48401 -69.6479
rradius 105.669
rwrist 38.7481
rhand -48.4804 0.925516
rfingers 7.12502
rthumb -21.1299 -27.9431
lclavicle 3.598e-014 3.97569e-015
lhumerus -45.0171 -11.2403 71.4763
lradius 113.314
lwrist 68.5012
lhand -12.6095 45.507
lfingers 7.12502
lthumb 13.4696 435.051
rfemur -26.8864 11.8255 0.916059
rtibia 53.9093
rfoot -8.6987 -11.8054
rtoes 14.0168
lfemur -20.4555 -0.836386 -9.54385
ltibia 21.5415
lfoot -17.8002 3.93994
ltoes -36.2646
796
root 13.3605 17.0351 4.03413 346.677 -80.0052 386.459
lowerback -8.47261 0.291377 5.18075
upperback -2.77079 -0.105429 -0.194347
thorax 1.86548 -0.0892988 -3.12634
lowerneck -9.5596 -3.15939 -1.58115
upperneck 30.0136 -5.4286 0.891882
head 11.3764 -2.84737 -0.137419
rclavicle -9.93923e-015 -1.59028e-014
rhumerus -56.2623 -8.36231 -68.794
rradius 107.066
rwrist 36.4831
rhand -50.5826 0.934156
rfingers 7.12502
rthumb -23.1482 -27.6951
lclavicle -9.93923e-015 -1.59028e-014
lhumerus -43.3879 -9.56283 68.878
lradius 113.317
lwrist 68.733
lhand -11.9381 46.7267
lfingers 7.12502
lthumb 14.1167 436.227
rfemur -29.679 11.7654 0.585677
rtibia 57.0126
rfoot -8.64021 -11.5216
rtoes 12.238
lfemur -20.2253 0.425427 -10.8784
ltibia 21.3102
lfoot -18.2744 3.63407
ltoes -35.6353
797
root 13.2871 17.0766 4.21458 342.15 -80.9525 390.965
lowerback -8.11998 -0.163218 4.73467
upperback -2.59623 -0.653374 -0.127869
thorax 1.8077 -0.357297 -2.85664
lowerneck -9.48421 -3.05982 -1.66409
upperneck 30.0486 -5.31823 0.944351
head 11.3772 -2.81173 -0.0909705
rclavicle -4.32357e-015 1.66979e-014
rhumerus -58.3973 -10.0705 -67.8103
rradius 108.441
rwrist 34.3348
rhand -52.5252 0.500137
rfingers 7.12502
rthumb -25.0109 -27.8826
lclavicle -4.32357e-015 1.66979e-014
lhumerus -41.6161 -7.85897 66.5562
lradius 113.172
lwrist 68.8289
lhand -11.3143 48.0675
lfingers 7.12502
lthumb 14.7177 437.525
rfemur -31.7071 11.8213 0.90639
rtibia 59.2291
rfoot -9.3214 -9.4014
rtoes 10.7748
lfemur -19.3679 1.24172 -11.9518
ltibia 21.0538
lfoot -18.5757 3.84514
ltoes -35.2256
